# xmcd
#
# Track frame offsets:
#	150
#	14367
#	17401
#	29023
#	30644
#	43940
#	47366
#	52851
#	62568
#	67029
#	70408
#	84190
#	90241
#	104423
#	107833
#	123394
#	137108
#	142436
#	155198
#
# Disc length: 2224 seconds
#
# Revision: 1
# Processed by: cddbd v1.5.2PL0 Copyright (c) Steve Scherf et al.
# Submitted via: audiograbber 1.83.01
#
DISCID=0908ae13
DTITLE=Johnny Cash - Strawberry Cake
DYEAR=1976
DGENRE=Country
TTITLE0=Big River
TTITLE1=Dialogue #1
TTITLE2=Doin' My Time
TTITLE3=Dialogue #2
TTITLE4=I Still Miss Someone
TTITLE5=Dialogue #3
TTITLE6=Another Man Done Gone
TTITLE7=I got Stripes
TTITLE8=Dialogue #4 June Intro
TTITLE9=Church In The Wildwood
TTITLE10=Wildwood/Lonesome Valley
TTITLE11=Dialogue #5
TTITLE12=Strawberry Cake
TTITLE13=Dialogue #6
TTITLE14=Rock Island Line
TTITLE15=Navajo
TTITLE16=Dialogue #7
TTITLE17=Destination Victoria Station
TTITLE18=The Fourth Man
EXTD=
EXTT0=
EXTT1=
EXTT2=
EXTT3=
EXTT4=
EXTT5=
EXTT6=
EXTT7=
EXTT8=
EXTT9=
EXTT10=
EXTT11=
EXTT12=
EXTT13=
EXTT14=
EXTT15=
EXTT16=
EXTT17=
EXTT18=
PLAYORDER=
